<svg width="200" height="200" viewBox="0 0 200 200" fill="none" xmlns="http://www.w3.org/2000/svg">
<path d="M177.142 91.3499C181.092 96.5166 181.092 103.492 177.142 108.65C164.7 124.892 134.85 158.333 100 158.333C65.15 158.333 35.3 124.892 22.8583 108.65C20.9365 106.176 19.8933 103.133 19.8933 99.9999C19.8933 96.8673 20.9365 93.8238 22.8583 91.3499C35.3 75.1083 65.15 41.6666 100 41.6666C134.85 41.6666 164.7 75.1083 177.142 91.3499V91.3499Z" stroke="#817878" stroke-width="2" stroke-linecap="round" stroke-linejoin="round"/>
<path d="M100 125C113.807 125 125 113.807 125 99.9999C125 86.1928 113.807 74.9999 100 74.9999C86.1929 74.9999 75 86.1928 75 99.9999C75 113.807 86.1929 125 100 125Z" stroke="#817878" stroke-width="2" stroke-linecap="round" stroke-linejoin="round"/>
</svg>
